<?xml version="1.0" encoding="utf-8"?>
<!-- Generator: Adobe Illustrator 24.0.3, SVG Export Plug-In . SVG Version: 6.00 Build 0)  -->
<svg version="1.1" id="Layer_1" xmlns="http://www.w3.org/2000/svg" xmlns:xlink="http://www.w3.org/1999/xlink" x="0px" y="0px"
	 viewBox="0 0 8 14" style="enable-background:new 0 0 8 14;" xml:space="preserve">
<style type="text/css">
	.st0{display:none;}
	.st1{fill:none;stroke:#FFFFFF;stroke-width:2;}
	.st2{fill:#FFFFFF;}
</style>
<path class="st0" d="M-28.1-18h215c5.5,0,10,4.5,10,10v30c0,5.5-4.5,10-10,10h-215c-5.5,0-10-4.5-10-10V-8
	C-38.1-13.5-33.6-18-28.1-18z"/>
<path class="st1" d="M6.9,12.5L1.9,7l5-5.5"/>
<path class="st2" d="M28.3,1.8V13h-1.6V8h-6.4v5h-1.6V1.8h1.6v4.8h6.4V1.8H28.3z M34.6,4.5c1.2,0,2.1,0.3,2.7,0.9
	c0.6,0.6,0.9,1.4,0.9,2.6V13h-1.5v-1.1c-0.3,0.4-0.6,0.7-1.1,0.9c-0.5,0.2-1,0.3-1.7,0.3c-0.9,0-1.7-0.2-2.3-0.7
	c-0.6-0.5-0.8-1.1-0.8-1.8s0.3-1.3,0.8-1.8c0.5-0.5,1.4-0.7,2.6-0.7h2.4V7.8c0-0.7-0.2-1.2-0.6-1.5c-0.4-0.4-0.9-0.5-1.7-0.5
	c-0.5,0-1,0.1-1.5,0.3c-0.5,0.2-0.9,0.4-1.2,0.7l-0.6-1.2c0.4-0.4,1-0.6,1.6-0.8C33.3,4.6,33.9,4.5,34.6,4.5z M34.2,11.9
	c0.6,0,1.1-0.1,1.5-0.4c0.4-0.3,0.7-0.6,0.9-1.1V9.2h-2.4c-1.3,0-2,0.4-2,1.3c0,0.4,0.2,0.8,0.5,1C33.2,11.8,33.6,11.9,34.2,11.9z
	 M45.4,8.6c0.6,0.1,1,0.4,1.3,0.7c0.3,0.3,0.5,0.7,0.5,1.2c0,0.5-0.2,0.9-0.5,1.3c-0.3,0.4-0.8,0.7-1.4,0.9c-0.6,0.2-1.3,0.3-2,0.3
	c-0.6,0-1.2-0.1-1.9-0.2c-0.6-0.2-1.1-0.4-1.6-0.7l0.5-1.2c0.4,0.3,0.9,0.5,1.4,0.6c0.5,0.1,1.1,0.2,1.6,0.2c0.7,0,1.3-0.1,1.7-0.4
	c0.4-0.3,0.7-0.6,0.7-1c0-0.4-0.2-0.7-0.5-0.9c-0.3-0.2-0.8-0.3-1.5-0.3h-1.6V8.1h1.4c0.6,0,1-0.1,1.4-0.3c0.3-0.2,0.5-0.5,0.5-0.8
	c0-0.4-0.2-0.7-0.6-0.9c-0.4-0.2-0.9-0.3-1.6-0.3c-0.8,0-1.7,0.2-2.7,0.7l-0.4-1.2c1-0.5,2.1-0.8,3.2-0.8c0.7,0,1.3,0.1,1.8,0.3
	c0.5,0.2,1,0.5,1.3,0.8C46.8,5.9,47,6.3,47,6.7c0,0.4-0.1,0.8-0.4,1.1C46.3,8.2,45.9,8.4,45.4,8.6z M52.6,4.5c1.2,0,2.1,0.3,2.7,0.9
	c0.6,0.6,0.9,1.4,0.9,2.6V13h-1.5v-1.1c-0.3,0.4-0.6,0.7-1.1,0.9c-0.5,0.2-1,0.3-1.7,0.3c-0.9,0-1.7-0.2-2.3-0.7
	c-0.6-0.5-0.8-1.1-0.8-1.8s0.3-1.3,0.8-1.8c0.5-0.5,1.4-0.7,2.6-0.7h2.4V7.8c0-0.7-0.2-1.2-0.6-1.5c-0.4-0.4-0.9-0.5-1.7-0.5
	c-0.5,0-1,0.1-1.5,0.3c-0.5,0.2-0.9,0.4-1.2,0.7l-0.6-1.2c0.4-0.4,1-0.6,1.6-0.8C51.2,4.6,51.9,4.5,52.6,4.5z M52.2,11.9
	c0.6,0,1.1-0.1,1.5-0.4c0.4-0.3,0.7-0.6,0.9-1.1V9.2h-2.4c-1.3,0-2,0.4-2,1.3c0,0.4,0.2,0.8,0.5,1C51.2,11.8,51.6,11.9,52.2,11.9z
	 M67.6,11.7V15h-1.4v-2h-7.1v2h-1.5v-3.3h0.4c0.5,0,0.9-0.4,1.1-1.2c0.2-0.7,0.3-1.8,0.4-3.1l0.1-2.9h6.6v7.1H67.6z M61,7.5
	c0,1.1-0.1,2-0.3,2.7c-0.1,0.7-0.4,1.2-0.7,1.5h4.8V5.9h-3.7L61,7.5z M77.2,9.4h-1.8V13h-1.5V4.5h1.5v3.6h1.8L80,4.5h1.6l-3.2,4.1
	l3.4,4.4H80L77.2,9.4z M94.1,5.9H91V13h-1.5V5.9h-3.1V4.5h7.7V5.9z M98.9,13.1c-0.8,0-1.6-0.2-2.3-0.6c-0.7-0.4-1.2-0.9-1.6-1.5
	c-0.4-0.7-0.6-1.4-0.6-2.2c0-0.8,0.2-1.6,0.6-2.2c0.4-0.7,0.9-1.2,1.6-1.5c0.7-0.4,1.4-0.6,2.3-0.6s1.6,0.2,2.3,0.6
	c0.7,0.4,1.2,0.9,1.6,1.5c0.4,0.7,0.6,1.4,0.6,2.2c0,0.8-0.2,1.6-0.6,2.2c-0.4,0.7-0.9,1.2-1.6,1.5C100.5,12.9,99.7,13.1,98.9,13.1z
	 M98.9,11.8c0.5,0,1-0.1,1.5-0.4c0.4-0.3,0.8-0.6,1-1.1c0.2-0.5,0.4-1,0.4-1.6s-0.1-1.1-0.4-1.6c-0.2-0.5-0.6-0.8-1-1.1
	c-0.4-0.2-0.9-0.4-1.5-0.4c-0.5,0-1,0.1-1.5,0.4c-0.4,0.2-0.8,0.6-1,1.1c-0.2,0.4-0.4,1-0.4,1.6s0.1,1.1,0.4,1.6
	c0.3,0.4,0.6,0.8,1,1.1C97.9,11.6,98.3,11.8,98.9,11.8z M111.3,8.6c1.1,0.3,1.6,1,1.6,2.1c0,0.7-0.3,1.3-0.8,1.7
	c-0.6,0.4-1.4,0.6-2.5,0.6h-4.1V4.5h3.9c1,0,1.8,0.2,2.4,0.6c0.6,0.4,0.8,0.9,0.8,1.6c0,0.4-0.1,0.8-0.4,1.2
	C112,8.2,111.7,8.4,111.3,8.6z M107,8.2h2.3c0.6,0,1-0.1,1.3-0.3c0.3-0.2,0.5-0.5,0.5-0.9c0-0.8-0.6-1.2-1.8-1.2H107V8.2z
	 M109.5,11.8c0.6,0,1.1-0.1,1.4-0.3c0.3-0.2,0.5-0.5,0.5-0.9c0-0.4-0.1-0.8-0.4-1c-0.3-0.2-0.7-0.3-1.4-0.3H107v2.5H109.5z
	 M118.4,4.5c1.2,0,2.1,0.3,2.7,0.9c0.6,0.6,0.9,1.4,0.9,2.6V13h-1.5v-1.1c-0.3,0.4-0.6,0.7-1.1,0.9c-0.5,0.2-1,0.3-1.7,0.3
	c-0.9,0-1.7-0.2-2.3-0.7c-0.6-0.5-0.8-1.1-0.8-1.8s0.3-1.3,0.8-1.8c0.5-0.5,1.4-0.7,2.6-0.7h2.4V7.8c0-0.7-0.2-1.2-0.6-1.5
	c-0.4-0.4-0.9-0.5-1.7-0.5c-0.5,0-1,0.1-1.5,0.3c-0.5,0.2-0.9,0.4-1.2,0.7l-0.6-1.2c0.4-0.4,1-0.6,1.6-0.8
	C117,4.6,117.7,4.5,118.4,4.5z M118,11.9c0.6,0,1.1-0.1,1.5-0.4c0.4-0.3,0.7-0.6,0.9-1.1V9.2h-2.4c-1.3,0-2,0.4-2,1.3
	c0,0.4,0.2,0.8,0.5,1C117,11.8,117.4,11.9,118,11.9z M129.3,4.5c0.8,0,1.6,0.2,2.2,0.5c0.7,0.4,1.2,0.9,1.5,1.5
	c0.4,0.7,0.6,1.4,0.6,2.3s-0.2,1.6-0.6,2.3c-0.4,0.7-0.9,1.2-1.5,1.5s-1.4,0.5-2.2,0.5c-0.6,0-1.2-0.1-1.7-0.4
	c-0.5-0.2-0.9-0.6-1.3-1v4.4h-1.5V4.5h1.5v1.3c0.3-0.5,0.8-0.8,1.3-1.1C128.1,4.6,128.6,4.5,129.3,4.5z M129.1,11.8
	c0.5,0,1-0.1,1.5-0.4c0.4-0.3,0.8-0.6,1-1.1c0.3-0.5,0.4-1,0.4-1.6s-0.1-1.1-0.4-1.6c-0.2-0.5-0.6-0.8-1-1.1
	c-0.4-0.2-0.9-0.4-1.5-0.4c-0.5,0-1,0.1-1.5,0.4c-0.4,0.2-0.8,0.6-1,1c-0.2,0.4-0.4,1-0.4,1.6s0.1,1.1,0.4,1.6
	c0.2,0.4,0.6,0.8,1,1.1C128.1,11.6,128.6,11.8,129.1,11.8z M138.7,4.5c1.2,0,2.1,0.3,2.7,0.9c0.6,0.6,0.9,1.4,0.9,2.6V13h-1.5v-1.1
	c-0.3,0.4-0.6,0.7-1.1,0.9c-0.5,0.2-1,0.3-1.7,0.3c-0.9,0-1.7-0.2-2.3-0.7c-0.6-0.5-0.8-1.1-0.8-1.8s0.3-1.3,0.8-1.8
	c0.5-0.5,1.4-0.7,2.6-0.7h2.4V7.8c0-0.7-0.2-1.2-0.6-1.5c-0.4-0.4-0.9-0.5-1.7-0.5c-0.5,0-1,0.1-1.5,0.3c-0.5,0.2-0.9,0.4-1.2,0.7
	l-0.6-1.2c0.4-0.4,1-0.6,1.6-0.8C137.4,4.6,138,4.5,138.7,4.5z M138.4,11.9c0.6,0,1.1-0.1,1.5-0.4c0.4-0.3,0.7-0.6,0.9-1.1V9.2h-2.4
	c-1.3,0-2,0.4-2,1.3c0,0.4,0.2,0.8,0.5,1C137.3,11.8,137.8,11.9,138.4,11.9z M154.9,4.5V13h-1.4V6.8l-3.2,5.2h-0.7l-3.1-5.2V13h-1.4
	V4.5h1.6l3.3,5.7l3.4-5.7H154.9z"/>
</svg>
