<?xml version="1.0" encoding="utf-8"?>
<!-- Generator: Adobe Illustrator 24.0.3, SVG Export Plug-In . SVG Version: 6.00 Build 0)  -->
<svg version="1.1" id="Layer_1" xmlns="http://www.w3.org/2000/svg" xmlns:xlink="http://www.w3.org/1999/xlink" x="0px" y="0px"
	 viewBox="0 0 16 14" style="enable-background:new 0 0 16 14;" xml:space="preserve">
<style type="text/css">
	.st0{fill:none;stroke:#000000;stroke-width:2;}
</style>
<path d="M1.9,7V6h-1v1H1.9z M1.9,12h-1v1h1V12z M1.9,8h3V6h-3V8z M5.9,9v1h2V9H5.9z M4.9,11h-3v2h3V11z M2.9,12V7h-2v5H2.9z M5.9,10
	c0,0.6-0.4,1-1,1v2c1.7,0,3-1.3,3-3H5.9z M4.9,8c0.6,0,1,0.4,1,1h2c0-1.7-1.3-3-3-3V8z"/>
<path class="st0" d="M9.9,7h3c1.1,0,2,0.9,2,2v1c0,1.1-0.9,2-2,2h-3V7z"/>
<path class="st0" d="M6.9,2h-5v6"/>
<path class="st0" d="M14.9,2h-5v6"/>
</svg>
