<?xml version="1.0" encoding="utf-8"?>
<!-- Generator: Adobe Illustrator 24.0.3, SVG Export Plug-In . SVG Version: 6.00 Build 0)  -->
<svg version="1.1" id="Layer_1" xmlns="http://www.w3.org/2000/svg" xmlns:xlink="http://www.w3.org/1999/xlink" x="0px" y="0px"
	 viewBox="0 0 20 22" style="enable-background:new 0 0 20 22;" xml:space="preserve">
<style type="text/css">
	.st0{display:none;}
	.st1{fill:none;stroke:#FFFFFF;stroke-width:2;}
</style>
<path class="st0" d="M-7.1-5h33c5.5,0,10,4.5,10,10v12c0,5.5-4.5,10-10,10h-33c-5.5,0-10-4.5-10-10V5C-17.1-0.5-12.6-5-7.1-5z"/>
<path class="st1" d="M5.4,18.5c0,0.8-0.7,1.5-1.5,1.5s-1.5-0.7-1.5-1.5S3.1,17,3.9,17S5.4,17.7,5.4,18.5z"/>
<path class="st1" d="M16.4,18.5c0,0.8-0.7,1.5-1.5,1.5s-1.5-0.7-1.5-1.5s0.7-1.5,1.5-1.5S16.4,17.7,16.4,18.5z"/>
<path class="st1" d="M1.4,8c0-1.1,0.9-2,2-2h11c1.1,0,2,0.9,2,2v1.4c0,3.2-3,5.6-6.2,4.9l-5-1.2C3,12.5,1.4,10.5,1.4,8.1V8z"/>
<path class="st1" d="M19.4,2h-2c-0.6,0-1,0.4-1,1v7"/>
<path class="st1" d="M4.4,18h9"/>
</svg>
