<?xml version="1.0" encoding="utf-8"?>
<!-- Generator: Adobe Illustrator 24.0.3, SVG Export Plug-In . SVG Version: 6.00 Build 0)  -->
<svg version="1.1" id="Layer_1" xmlns="http://www.w3.org/2000/svg" xmlns:xlink="http://www.w3.org/1999/xlink" x="0px" y="0px"
	 viewBox="0 0 24 24" style="enable-background:new 0 0 24 24;" xml:space="preserve">
<style type="text/css">
	.st0{display:none;fill:#F0F2F4;}
	.st1{display:none;fill:#F6F6F6;}
	.st2{display:none;fill:#ACB8CA;}
	.st3{display:none;fill:#909EB7;}
	.st4{fill:#9A9A9A;}
</style>
<path class="st0" d="M12.4,0L12.4,0c6.6,0,12,5.4,12,12l0,0c0,6.6-5.4,12-12,12l0,0c-6.6,0-12-5.4-12-12l0,0C0.4,5.4,5.8,0,12.4,0z"
	/>
<path class="st1" d="M12.4,0L12.4,0c6.6,0,12,5.4,12,12l0,0c0,6.6-5.4,12-12,12l0,0c-6.6,0-12-5.4-12-12l0,0C0.4,5.4,5.8,0,12.4,0z"
	/>
<path class="st2" d="M11.5,13.6c0-0.5,0.1-0.9,0.3-1.2c0.2-0.3,0.5-0.7,1-1.1c0.3-0.3,0.5-0.5,0.7-0.7c0.1-0.2,0.2-0.4,0.2-0.7
	c0-0.3-0.1-0.6-0.4-0.8C13,9,12.6,8.8,12.2,8.8c-0.4,0-0.8,0.1-1.2,0.3c-0.3,0.2-0.6,0.4-0.9,0.8l-1.7-1C8.8,8.3,9.4,7.8,10,7.5
	C10.7,7.2,11.5,7,12.4,7c1.1,0,1.9,0.2,2.6,0.7c0.7,0.5,1,1.1,1,1.9c0,0.4-0.1,0.7-0.2,1c-0.1,0.3-0.3,0.5-0.5,0.7
	c-0.2,0.2-0.4,0.4-0.7,0.7c-0.3,0.3-0.6,0.6-0.8,0.8c-0.2,0.2-0.2,0.5-0.2,0.8H11.5z M12.6,17.1c-0.4,0-0.7-0.1-1-0.4
	c-0.3-0.3-0.4-0.6-0.4-0.9c0-0.4,0.1-0.6,0.4-0.9c0.3-0.2,0.6-0.4,1-0.4s0.7,0.1,1,0.4c0.3,0.2,0.4,0.5,0.4,0.9
	c0,0.4-0.1,0.7-0.4,0.9C13.3,17,12.9,17.1,12.6,17.1z"/>
<path class="st3" d="M11.5,13.6c0-0.5,0.1-0.9,0.3-1.2c0.2-0.3,0.5-0.7,1-1.1c0.3-0.3,0.5-0.5,0.7-0.7c0.1-0.2,0.2-0.4,0.2-0.7
	c0-0.3-0.1-0.6-0.4-0.8C13,9,12.6,8.8,12.2,8.8c-0.4,0-0.8,0.1-1.2,0.3c-0.3,0.2-0.6,0.4-0.9,0.8l-1.7-1C8.8,8.3,9.4,7.8,10,7.5
	C10.7,7.2,11.5,7,12.4,7c1.1,0,1.9,0.2,2.6,0.7c0.7,0.5,1,1.1,1,1.9c0,0.4-0.1,0.7-0.2,1c-0.1,0.3-0.3,0.5-0.5,0.7
	c-0.2,0.2-0.4,0.4-0.7,0.7c-0.3,0.3-0.6,0.6-0.8,0.8c-0.2,0.2-0.2,0.5-0.2,0.8H11.5z M12.6,17.1c-0.4,0-0.7-0.1-1-0.4
	c-0.3-0.3-0.4-0.6-0.4-0.9c0-0.4,0.1-0.6,0.4-0.9c0.3-0.2,0.6-0.4,1-0.4s0.7,0.1,1,0.4c0.3,0.2,0.4,0.5,0.4,0.9
	c0,0.4-0.1,0.7-0.4,0.9C13.3,17,12.9,17.1,12.6,17.1z"/>
<path class="st4" d="M11.5,13.6c0-0.5,0.1-0.9,0.3-1.2c0.2-0.3,0.5-0.7,1-1.1c0.3-0.3,0.5-0.5,0.7-0.7c0.1-0.2,0.2-0.4,0.2-0.7
	c0-0.3-0.1-0.6-0.4-0.8C13,9,12.6,8.8,12.2,8.8c-0.4,0-0.8,0.1-1.2,0.3c-0.3,0.2-0.6,0.4-0.9,0.8l-1.7-1C8.8,8.3,9.4,7.8,10,7.5
	C10.7,7.2,11.5,7,12.4,7c1.1,0,1.9,0.2,2.6,0.7c0.7,0.5,1,1.1,1,1.9c0,0.4-0.1,0.7-0.2,1c-0.1,0.3-0.3,0.5-0.5,0.7
	c-0.2,0.2-0.4,0.4-0.7,0.7c-0.3,0.3-0.6,0.6-0.8,0.8c-0.2,0.2-0.2,0.5-0.2,0.8H11.5z M12.6,17.1c-0.4,0-0.7-0.1-1-0.4
	c-0.3-0.3-0.4-0.6-0.4-0.9c0-0.4,0.1-0.6,0.4-0.9c0.3-0.2,0.6-0.4,1-0.4s0.7,0.1,1,0.4c0.3,0.2,0.4,0.5,0.4,0.9
	c0,0.4-0.1,0.7-0.4,0.9C13.3,17,12.9,17.1,12.6,17.1z"/>
</svg>
