<?xml version="1.0" encoding="utf-8"?>
<!-- Generator: Adobe Illustrator 24.0.3, SVG Export Plug-In . SVG Version: 6.00 Build 0)  -->
<svg version="1.1" xmlns="http://www.w3.org/2000/svg" xmlns:xlink="http://www.w3.org/1999/xlink" x="0px" y="0px"
	 viewBox="0 0 17 16" style="enable-background:new 0 0 17 16;" xml:space="preserve">
<style type="text/css">
	.st0{display:none;}
	.st1{display:inline;fill:#4633B9;}
	.st2{display:inline;fill:#1767F9;}
	.st3{display:inline;fill:#EEF8F9;}
	.st4{display:inline;fill:none;stroke:#4633B9;stroke-width:1.6667;}
	.st5{display:inline;fill:none;stroke:#1767F9;stroke-width:1.6667;}
	.st6{display:inline;fill:none;stroke:#4BB1BC;stroke-width:1.6667;}
	.st7{display:inline;fill:#4BB1BC;}
	.st8{fill:none;stroke:#000000;stroke-width:2;}
</style>
<g id="Layer_1" class="st0">
	<circle class="st1" cx="8.4" cy="8" r="9.2"/>
	<circle class="st2" cx="8.4" cy="8" r="9.2"/>
	<circle class="st3" cx="8.4" cy="8" r="9.2"/>
	<circle class="st4" cx="8.4" cy="8" r="9.2"/>
	<circle class="st5" cx="8.4" cy="8" r="9.2"/>
	<circle class="st6" cx="8.4" cy="8" r="9.2"/>
	<circle class="st1" cx="8.4" cy="8" r="5.8"/>
	<circle class="st2" cx="8.4" cy="8" r="5.8"/>
	<circle class="st7" cx="8.4" cy="8" r="5.8"/>
</g>
<g id="Layer_2">
	<path class="st8" d="M12.2,14.8L12.2,14.8L12.2,14.8c-3-1.1-5.1-2.2-6.6-3.8C4,9.3,2.9,7.2,1.9,4l0,0c0.8-1.3,1.6-1.9,2.9-2.7
		C5,1.2,5.4,1.2,5.7,1.5c0.7,0.7,1.1,1.3,1.5,1.9c0.1,0.2,0.2,0.5-0.1,0.8l0,0l0,0l-1,1.5L5.9,6.3l0.3,0.5c0.4,0.8,0.9,1.5,1.5,2.1
		c0.6,0.6,1.4,1.2,2.4,1.7l0.5,0.2l0.5-0.3l1.2-0.7l0.1-0.1l0.1-0.1c0.4-0.4,1-0.4,1.2-0.1c0.6,0.6,1.1,1.2,1.4,1.9
		c0.1,0.1,0,0.2,0,0.3C14.4,13.1,13.6,13.7,12.2,14.8L12.2,14.8C12.2,14.8,12.2,14.8,12.2,14.8C12.2,14.8,12.2,14.8,12.2,14.8z
		 M12.2,14.8L12.2,14.8C12.2,14.8,12.2,14.8,12.2,14.8z"/>
</g>
</svg>
